<svg version="1.2" xmlns="http://www.w3.org/2000/svg" viewBox="0 0 594 594" width="594" height="594">
	<style>
		.s4 { fill:#E6E1E5 } 
	</style>
	<g id="Folder 3">
		<path id="Shape 11" class="s4" d="m323.34 112.93c-0.47-4.19-3.32-7.75-7.33-9.16-4.01-1.41-8.43-0.4-11.45 2.57l-36.08 35.72-49.23-9.52c-4.12-0.79-8.34 0.81-10.86 4.13-2.52 3.32-2.99 7.8-1.16 11.55l22.19 45.49-24.67 44.63c-2.02 3.68-1.79 8.23 0.63 11.67 2.41 3.44 6.58 5.24 10.75 4.62l49.66-7.63 34 36.98c2.87 3.09 7.23 4.33 11.28 3.12 4.05-1.22 7.06-4.58 7.78-8.72l8.6-50.27 45.75-21.65c3.77-1.79 6.23-5.57 6.31-9.75 0.07-4.18-2.2-8.05-5.9-10l-44.43-23.35z"/>
		<path id="Shape 12" class="s4" d="m386.62 231.68c-1.29 0.04-2.42 0.88-2.84 2.1-0.41 1.22-0.02 2.57 0.98 3.39l12.53 10.28 0.51 16.2c0.04 1.3 0.88 2.43 2.1 2.84 1.22 0.42 2.57 0.03 3.39-0.97l10.27-12.55 16.2-0.51c1.29-0.05 2.42-0.88 2.84-2.1 0.41-1.22 0.02-2.58-0.97-3.4l-12.54-10.27-0.5-16.21c-0.05-1.29-0.88-2.43-2.1-2.84-1.22-0.41-2.57-0.02-3.4 0.98l-10.27 12.54z"/>
		<path id="Shape 12 copy" class="s4" d="m346.18 333.54c-0.62 0.84-0.65 1.99-0.08 2.86 0.57 0.88 1.62 1.31 2.65 1.09l12.84-2.83 10.59 7.81c0.84 0.62 1.98 0.66 2.86 0.09 0.88-0.57 1.31-1.63 1.08-2.65l-2.84-12.85 7.81-10.58c0.62-0.85 0.65-1.99 0.08-2.87-0.57-0.88-1.63-1.31-2.65-1.08l-12.84 2.83-10.59-7.82c-0.84-0.62-1.98-0.65-2.86-0.08-0.88 0.57-1.31 1.62-1.08 2.65l2.84 12.85z"/>
		<path id="Shape 12 copy 2" class="s4" d="m352.04 131.55c-0.55 0.45-0.77 1.21-0.53 1.89 0.23 0.68 0.86 1.14 1.58 1.16l9.01 0.27 5.73 6.98c0.46 0.55 1.21 0.77 1.89 0.54 0.68-0.24 1.14-0.87 1.16-1.59l0.27-9.02 6.96-5.72c0.56-0.46 0.77-1.21 0.54-1.89-0.23-0.68-0.86-1.15-1.58-1.17l-9.01-0.27-5.73-6.97c-0.46-0.56-1.21-0.77-1.89-0.54-0.68 0.23-1.14 0.86-1.16 1.58l-0.27 9.02z"/>
		<path id="Shape 12 copy 3" class="s4" d="m234.98 103.36c-0.62 0.87-0.65 2.04-0.06 2.93 0.59 0.89 1.67 1.32 2.72 1.08l13.07-3.02 10.87 7.86c0.87 0.63 2.04 0.66 2.93 0.07 0.89-0.59 1.31-1.68 1.07-2.72l-3.02-13.08 7.85-10.87c0.63-0.87 0.65-2.04 0.06-2.93-0.59-0.89-1.67-1.31-2.72-1.08l-13.07 3.02-10.87-7.86c-0.87-0.63-2.04-0.65-2.93-0.06-0.88 0.59-1.31 1.67-1.07 2.71l3.02 13.08z"/>
		<path id="Shape 12 copy 4" class="s4" d="m117.36 201.25c-0.85 1-0.99 2.42-0.35 3.57 0.64 1.14 1.93 1.77 3.22 1.58l16.29-2.47 12.57 10.65c1.01 0.85 2.43 0.99 3.58 0.36 1.14-0.64 1.77-1.93 1.57-3.23l-2.47-16.29 10.64-12.58c0.84-1 0.98-2.43 0.34-3.57-0.63-1.14-1.92-1.77-3.22-1.58l-16.29 2.47-12.57-10.66c-1.01-0.84-2.43-0.99-3.57-0.35-1.15 0.64-1.77 1.93-1.58 3.23l2.48 16.29z"/>
	</g>
</svg>